<?xml version="1.0" encoding="utf-8"?>
<!-- Generator: Adobe Illustrator 16.0.0, SVG Export Plug-In . SVG Version: 6.00 Build 0)  -->
<!DOCTYPE svg PUBLIC "-//W3C//DTD SVG 1.1//EN" "http://www.w3.org/Graphics/SVG/1.1/DTD/svg11.dtd">
<svg version="1.1" id="Capa_1" xmlns="http://www.w3.org/2000/svg" xmlns:xlink="http://www.w3.org/1999/xlink" x="0px" y="0px"
	 width="459.173px" height="286.759px" viewBox="0 0 459.173 286.759" enable-background="new 0 0 459.173 286.759"
	 xml:space="preserve">
<g enable-background="new    ">
	<g enable-background="new    ">
		<path fill="#1D2327" d="M166.57,20.649l0.057,19.547c4.408-2.545,11.67-2.545,16.054,0l-0.06-19.547
			C178.237,18.104,170.98,18.104,166.57,20.649L166.57,20.649z"/>
	</g>
</g>
<g>
	<polygon fill="#161A1D" points="107.909,38.625 107.967,58.169 111.918,60.473 111.861,40.926 	"/>
</g>
<g>
	<polygon fill="#161A1E" points="66.424,62.577 66.483,82.118 107.967,58.169 107.909,38.625 	"/>
</g>
<g>
	<polygon fill="#8D8D8F" points="66.424,62.577 66.483,82.118 70.436,84.417 70.383,64.875 	"/>
</g>
<g>
	<polygon fill="#8D8E8F" points="70.383,64.875 70.436,84.417 111.918,60.473 111.861,40.926 	"/>
</g>
<g>
	<polygon fill="#161A1E" points="35.17,96.513 35.229,116.054 166.626,40.196 166.57,20.649 	"/>
</g>
<g enable-background="new    ">
	<g enable-background="new    ">
		<path fill="#1D2327" d="M31.864,101.166l0.053,19.552c0-1.688,1.102-3.387,3.312-4.664L35.17,96.513
			C32.958,97.79,31.864,99.478,31.864,101.166L31.864,101.166z"/>
	</g>
</g>
<g enable-background="new    ">
	<g enable-background="new    ">
		<path fill="#1D2327" d="M0.184,92.161l0.057,19.542c0.011,4.175,2.73,8.349,8.188,11.514l-0.058-19.541
			C2.919,100.505,0.199,96.333,0.184,92.161L0.184,92.161z"/>
	</g>
</g>
<g enable-background="new    ">
	<g enable-background="new    ">
		<path fill="#119499" d="M31.864,101.166l0.053,19.552c0.008,1.671,1.102,3.353,3.285,4.624l-0.051-19.546
			C32.968,104.529,31.87,102.847,31.864,101.166L31.864,101.166z"/>
	</g>
</g>
<g>
	<polygon fill="#161A1D" points="182.62,20.649 182.68,40.196 406.384,170.198 406.328,150.657 	"/>
</g>
<g>
	<polygon fill="#828282" points="143.238,148.603 143.296,168.144 149.751,164.419 149.699,144.877 	"/>
</g>
<g>
	<polygon fill="#6C6C6B" points="139.742,146.571 139.796,166.123 142.228,167.522 142.174,147.986 	"/>
</g>
<g>
	<polygon fill="#828282" points="142.174,147.986 142.228,167.522 143.296,168.144 143.238,148.603 	"/>
</g>
<g enable-background="new    ">
	<g enable-background="new    ">
		<path fill="#1D2327" d="M406.328,150.657l0.056,19.541c2.176,1.271,3.265,2.942,3.27,4.619l-0.056-19.542
			C409.596,153.599,408.505,151.922,406.328,150.657L406.328,150.657z"/>
	</g>
</g>
<g enable-background="new    ">
	<g enable-background="new    ">
		<path fill="#119499" d="M406.275,159.956l0.059,19.541c2.215-1.277,3.325-2.981,3.319-4.68l-0.056-19.542
			C409.604,156.974,408.493,158.673,406.275,159.956L406.275,159.956z"/>
	</g>
</g>
<g>
	<path fill="#A7E0DB" d="M166.57,20.649c4.411-2.545,11.667-2.545,16.05,0l223.708,130.007c4.38,2.548,4.361,6.756-0.053,9.299
		l-131.398,75.861c-4.408,2.548-11.639,2.526-16.019-0.011L35.151,105.795c-4.381-2.548-4.386-6.734,0.02-9.282L166.57,20.649z"/>
</g>
<g>
	<polygon fill="#0D7074" points="274.877,235.816 274.936,255.363 406.334,179.497 406.275,159.956 	"/>
</g>
<g enable-background="new    ">
	<g enable-background="new    ">
		<path fill="#1D2327" d="M357.359,198.422l0.055,19.541c2.418-1.399,6.351-1.421,8.76-0.017l-0.061-19.552
			C363.715,197,359.773,197.017,357.359,198.422L357.359,198.422z"/>
	</g>
</g>
<g>
	<polygon fill="#161A1E" points="341.47,207.593 341.526,227.134 357.414,217.963 357.359,198.422 	"/>
</g>
<g>
	<polygon fill="#161A1D" points="366.113,198.394 366.174,217.946 381.985,227.134 381.93,207.593 	"/>
</g>
<g enable-background="new    ">
	<g enable-background="new    ">
		<path fill="#1D2327" d="M339.622,210.152l0.056,19.552c-0.005-0.927,0.611-1.854,1.849-2.57l-0.056-19.541
			C340.229,208.309,339.619,209.225,339.622,210.152L339.622,210.152z"/>
	</g>
</g>
<g enable-background="new    ">
	<g enable-background="new    ">
		<path fill="#1D2327" d="M381.93,207.593l0.055,19.541c1.191,0.694,1.782,1.593,1.782,2.499l-0.058-19.547
			C383.706,209.186,383.118,208.281,381.93,207.593L381.93,207.593z"/>
	</g>
</g>
<g enable-background="new    ">
	<g enable-background="new    ">
		<path fill="#BABBBD" d="M339.622,210.152l0.056,19.552c0,0.905,0.6,1.815,1.788,2.504l-0.056-19.547
			C340.219,211.979,339.622,211.068,339.622,210.152L339.622,210.152z"/>
	</g>
</g>
<g enable-background="new    ">
	<g enable-background="new    ">
		<path fill="#BABBBD" d="M381.874,212.661l0.053,19.547c1.224-0.705,1.84-1.643,1.84-2.576l-0.058-19.547
			C383.714,211.023,383.098,211.956,381.874,212.661L381.874,212.661z"/>
	</g>
</g>
<g>
	<polygon fill="#8D8D8F" points="341.409,212.661 341.465,232.208 357.281,241.396 357.228,221.86 	"/>
</g>
<g>
	<polygon fill="#8D8E8F" points="365.986,221.838 366.039,241.385 381.927,232.208 381.874,212.661 	"/>
</g>
<g>
	<path fill="#F6F7FA" d="M341.47,207.593c-2.451,1.41-2.462,3.675-0.061,5.068l15.819,9.199c2.401,1.388,6.304,1.388,8.758-0.022
		l15.888-9.177c2.417-1.394,2.459-3.681,0.056-5.068l-15.816-9.199c-2.398-1.394-6.34-1.377-8.754,0.028L341.47,207.593z"/>
</g>
<g enable-background="new    ">
	<g enable-background="new    ">
		<path fill="#BABBBD" d="M357.228,221.86l0.053,19.536c2.401,1.405,6.31,1.405,8.758-0.011l-0.053-19.547
			C363.532,223.248,359.629,223.248,357.228,221.86L357.228,221.86z"/>
	</g>
</g>
<g>
	<polygon fill="#0D7074" points="35.151,105.795 35.202,125.342 258.912,255.341 258.859,235.805 	"/>
</g>
<g enable-background="new    ">
	<g enable-background="new    ">
		<path fill="#119499" d="M258.859,235.805l0.053,19.536c4.38,2.548,11.614,2.565,16.024,0.022l-0.059-19.547
			C270.47,238.365,263.239,238.342,258.859,235.805L258.859,235.805z"/>
	</g>
</g>
<g>
	<path fill="#18617C" d="M138.979,5.15c11.053-6.376,29.055-6.376,40.036,0l269.089,156.376
		c10.983,6.379,10.953,16.832-0.101,23.211l-130.476,75.339c-11.025,6.362-29.09,6.362-40.071-0.022L8.371,103.675
		C-2.607,97.296-2.52,86.848,8.501,80.48L138.979,5.15z M258.859,235.805c4.38,2.537,11.611,2.56,16.019,0.011l131.398-75.861
		c4.414-2.542,4.433-6.75,0.053-9.299L182.62,20.649c-4.383-2.545-11.64-2.545-16.05,0L35.17,96.513
		c-4.405,2.548-4.401,6.734-0.02,9.282L258.859,235.805L258.859,235.805z M357.228,221.86c2.401,1.388,6.307,1.388,8.758-0.022
		l15.888-9.177c2.417-1.394,2.459-3.681,0.056-5.068l-15.816-9.199c-2.398-1.394-6.34-1.377-8.754,0.028l-15.889,9.171
		c-2.451,1.41-2.462,3.675-0.061,5.068L357.228,221.86L357.228,221.86z M107.909,38.625L66.424,62.577l3.959,2.298l41.478-23.949
		L107.909,38.625L107.909,38.625z"/>
</g>
<g>
	<polygon fill="#F6F7FA" points="66.424,62.577 70.383,64.875 111.861,40.926 107.909,38.625 	"/>
</g>
<path fill="#0E3847" d="M277.456,260.054c10.981,6.384,29.045,6.384,40.071,0.022l130.476-75.339
	c5.558-3.214,8.327-7.444,8.316-11.664l0.05,19.541c0.012,4.225-2.753,8.46-8.311,11.669l-130.476,75.328
	c-11.025,6.367-29.087,6.367-40.068-0.017L8.429,123.216l-0.058-19.541L277.456,260.054z"/>
<g>
	<g enable-background="new    ">
		<defs>
			<path id="SVGID_1_" enable-background="new    " d="M166.038,83.5l-0.02,5.563c0.007-1.737-1.137-3.478-3.429-4.799
				c-4.562-2.628-11.928-2.645-16.455-0.005c-2.249,1.31-3.377,3.012-3.377,4.732l0.014-5.563c0.002-1.718,1.127-3.419,3.378-4.73
				c4.527-2.64,11.894-2.62,16.453,0.003C164.896,80.025,166.043,81.766,166.038,83.5z"/>
		</defs>
		<use xlink:href="#SVGID_1_"  overflow="visible" fill="#BA9D5D"/>
		<clipPath id="SVGID_2_">
			<use xlink:href="#SVGID_1_"  overflow="visible"/>
		</clipPath>
		<g clip-path="url(#SVGID_2_)">
			<path fill="#8E5800" d="M166.038,83.5l-0.02,5.563c0.007-1.737-1.137-3.478-3.429-4.799c-4.562-2.628-11.928-2.645-16.455-0.005
				c-2.249,1.31-3.377,3.012-3.377,4.732l0.014-5.563c0.002-1.718,1.127-3.419,3.378-4.73c4.527-2.64,11.894-2.62,16.453,0.003
				C164.896,80.025,166.043,81.766,166.038,83.5L166.038,83.5z"/>
		</g>
	</g>
	<g>
		<path fill="#E3BE70" d="M223.434,86.071c7.917,4.786,7.762,12.491-0.278,17.168l-34.396,19.988
			c-8.05,4.68-21.336,4.777-29.639,0.216l-39.293-21.584c-0.13-0.072-0.262-0.139-0.389-0.217c-3.732-2.151-5.825-4.991-5.889-8.022
			c-0.081-3.136,1.971-6.087,5.811-8.327l38.091-22.134c3.833-2.223,8.946-3.431,14.352-3.392
			c5.223,0.028,10.119,1.235,13.852,3.386c0.128,0.086,0.264,0.153,0.386,0.23L223.434,86.071z M144.605,89.163
			c5.445,3.142,14.252,3.131,19.665-0.006c5.389-3.142,5.381-8.244-0.067-11.386c-5.444-3.153-14.275-3.137-19.662-0.006
			C139.13,80.914,139.156,86.015,144.605,89.163L144.605,89.163z"/>
	</g>
	<g>
		<path fill="#EED8A9" d="M226.724,84.239c9.563,5.821,9.413,15.197-0.337,20.868l-3.776,2.198l-13.41,7.783l-4.818,2.806
			l-3.606,2.096l-5.007,2.906l-3.778,2.201c-9.751,5.657-25.938,5.773-36.014,0.255l-39.274-21.584
			c-0.156-0.089-0.31-0.178-0.462-0.261c-9.591-5.54-9.683-14.5-0.101-20.068l38.09-22.134c9.6-5.577,25.068-5.554,34.657-0.017
			c0.15,0.083,0.302,0.175,0.447,0.272L226.724,84.239z M188.76,123.227l34.396-19.988c8.04-4.677,8.195-12.382,0.278-17.168
			l-37.391-22.686c-0.122-0.078-0.258-0.145-0.386-0.23c-3.733-2.151-8.629-3.358-13.852-3.386
			c-5.406-0.039-10.519,1.168-14.352,3.392l-38.091,22.134c-3.84,2.24-5.892,5.191-5.811,8.327c0.064,3.031,2.157,5.871,5.889,8.022
			c0.126,0.078,0.258,0.145,0.389,0.217l39.293,21.584C167.424,128.004,180.71,127.907,188.76,123.227L188.76,123.227z"/>
	</g>
	<g>
		<path fill="#EED8A9" d="M165.694,76.905c6.274,3.623,6.284,9.499,0.076,13.118c-6.235,3.614-16.382,3.625-22.654,0.008
			c-6.277-3.628-6.308-9.504-0.074-13.132C149.248,73.294,159.421,73.275,165.694,76.905z M146.206,88.236
			c4.558,2.626,11.926,2.621,16.447-0.005c4.534-2.634,4.507-6.895-0.05-9.529c-4.559-2.623-11.926-2.643-16.453-0.003
			C141.62,81.33,141.645,85.61,146.206,88.236L146.206,88.236z"/>
	</g>
	<g>
		<polygon fill="#774102" points="236.825,115.516 236.808,121.07 235.673,122.819 235.689,117.262 		"/>
	</g>
	<g>
		<path fill="#8E5800" d="M226.387,105.107l-3.776,2.198l-0.015,5.56l3.778-2.196c4.928-2.862,7.401-6.673,7.41-10.495l0.017-5.565
			C233.788,98.434,231.315,102.248,226.387,105.107z"/>
		<path fill="#BA9D5D" d="M155.978,125.353l-39.274-21.584c-0.156-0.089-0.31-0.178-0.462-0.261
			c-4.831-2.79-7.253-6.439-7.245-10.104l-0.02,5.563c-0.002,3.661,2.419,7.312,7.253,10.106c0.147,0.081,0.3,0.169,0.453,0.253
			l39.284,21.589c10.066,5.519,26.254,5.399,36.011-0.261l3.776-2.193l0.015-5.565l-3.778,2.201
			C182.24,130.755,166.053,130.871,155.978,125.353z"/>
	</g>
	<g>
		<polygon fill="#8E5800" points="296.24,157.59 296.229,163.153 294.027,169.643 294.055,164.086 		"/>
	</g>
	<g>
		<polygon fill="#EED8A9" points="236.825,115.516 235.689,117.262 237.924,118.55 242.698,126.671 255.889,128.917 
			260.805,131.757 266.354,140.331 269.282,142.021 279.321,142.46 282.664,144.386 284.234,150.657 296.354,152.289 296.24,157.59 
			294.055,164.086 209.192,115.1 222.607,107.305 233.294,113.465 		"/>
	</g>
	<g>
		<polygon fill="#A37128" points="294.055,164.086 294.039,169.643 285.98,170.584 285.997,165.024 		"/>
	</g>
	<g>
		<polygon fill="#E3BE70" points="209.201,115.088 294.055,164.086 285.997,165.024 204.382,117.895 		"/>
	</g>
	<g>
		<polygon fill="#8E5800" points="285.997,165.013 285.98,170.581 279.949,171.28 279.963,165.718 		"/>
	</g>
	<g>
		<polygon fill="#EED8A9" points="285.997,165.013 279.963,165.718 200.77,119.99 204.382,117.895 		"/>
	</g>
	<g>
		<polygon fill="#E3BE70" points="195.769,122.896 200.776,119.99 279.971,165.718 271.591,166.681 		"/>
	</g>
	<g>
		<polygon fill="#BA9D5D" points="271.591,166.681 271.577,172.241 195.754,128.462 195.769,122.896 		"/>
	</g>
	<g>
		<polygon fill="#A37128" points="279.971,165.718 279.955,171.27 271.577,172.241 271.591,166.681 		"/>
	</g>
</g>
</svg>
